<?xml version="1.0" encoding="UTF-8"?>
<svg width="512" height="512" viewBox="0 0 512 512" fill="none" xmlns="http://www.w3.org/2000/svg">
  <circle cx="256" cy="256" r="240" fill="#4A90E2"/>
  <path d="M256 128C185.307 128 128 185.307 128 256C128 326.693 185.307 384 256 384C326.693 384 384 326.693 384 256C384 185.307 326.693 128 256 128ZM256 352C203.072 352 160 308.928 160 256C160 203.072 203.072 160 256 160C308.928 160 352 203.072 352 256C352 308.928 308.928 352 256 352Z" fill="white"/>
  <path d="M256 192C229.49 192 208 213.49 208 240C208 266.51 229.49 288 256 288C282.51 288 304 266.51 304 240C304 213.49 282.51 192 256 192ZM256 256C238.327 256 224 241.673 224 224C224 206.327 238.327 192 256 192C273.673 192 288 206.327 288 224C288 241.673 273.673 256 256 256Z" fill="white"/>
  <path d="M352 320C352 337.673 337.673 352 320 352C302.327 352 288 337.673 288 320C288 302.327 302.327 288 320 288C337.673 288 352 302.327 352 320Z" fill="white"/>
  <path d="M224 320C224 337.673 209.673 352 192 352C174.327 352 160 337.673 160 320C160 302.327 174.327 288 192 288C209.673 288 224 302.327 224 320Z" fill="white"/>
</svg> 